<svg xmlns="http://www.w3.org/2000/svg" width="860" height="270">
  <defs>
    <style>
      .sl{font-family:"JetBrains Mono","Courier New",monospace;font-size:12px;fill:#b5e8b0}
      .sp{font-family:"JetBrains Mono","Courier New",monospace;font-size:11px}
    </style>
  </defs>
  <rect width="860" height="270" fill="#0D1117" rx="8"/>
  <text class="sl" x="15" y="33">Python</text>
  <rect x="140" y="20" width="680" height="16" rx="4" fill="#161b22"/>
  <rect x="140" y="20" height="16" rx="4" fill="#00FF41" opacity=".85">
    <animate attributeName="width" from="0" to="625" dur="1.2s" begin="0.0s" fill="freeze" calcMode="spline" keySplines="0.4 0 0.2 1"/>
  </rect>
  <text class="sp" x="773" y="33" fill="#00FF41">92%</text>
  <text class="sl" x="15" y="63">Data Science</text>
  <rect x="140" y="50" width="680" height="16" rx="4" fill="#161b22"/>
  <rect x="140" y="50" height="16" rx="4" fill="#00c6ff" opacity=".85">
    <animate attributeName="width" from="0" to="578" dur="1.2s" begin="0.15s" fill="freeze" calcMode="spline" keySplines="0.4 0 0.2 1"/>
  </rect>
  <text class="sp" x="726" y="63" fill="#00c6ff">85%</text>
  <text class="sl" x="15" y="93">JavaScript</text>
  <rect x="140" y="80" width="680" height="16" rx="4" fill="#161b22"/>
  <rect x="140" y="80" height="16" rx="4" fill="#00FF41" opacity=".85">
    <animate attributeName="width" from="0" to="544" dur="1.2s" begin="0.3s" fill="freeze" calcMode="spline" keySplines="0.4 0 0.2 1"/>
  </rect>
  <text class="sp" x="692" y="93" fill="#00FF41">80%</text>
  <text class="sl" x="15" y="123">Java</text>
  <rect x="140" y="110" width="680" height="16" rx="4" fill="#161b22"/>
  <rect x="140" y="110" height="16" rx="4" fill="#00c6ff" opacity=".85">
    <animate attributeName="width" from="0" to="510" dur="1.2s" begin="0.45s" fill="freeze" calcMode="spline" keySplines="0.4 0 0.2 1"/>
  </rect>
  <text class="sp" x="658" y="123" fill="#00c6ff">75%</text>
  <text class="sl" x="15" y="153">React</text>
  <rect x="140" y="140" width="680" height="16" rx="4" fill="#161b22"/>
  <rect x="140" y="140" height="16" rx="4" fill="#00FF41" opacity=".85">
    <animate attributeName="width" from="0" to="530" dur="1.2s" begin="0.6s" fill="freeze" calcMode="spline" keySplines="0.4 0 0.2 1"/>
  </rect>
  <text class="sp" x="678" y="153" fill="#00FF41">78%</text>
  <text class="sl" x="15" y="183">Linux / Bash</text>
  <rect x="140" y="170" width="680" height="16" rx="4" fill="#161b22"/>
  <rect x="140" y="170" height="16" rx="4" fill="#00c6ff" opacity=".85">
    <animate attributeName="width" from="0" to="598" dur="1.2s" begin="0.75s" fill="freeze" calcMode="spline" keySplines="0.4 0 0.2 1"/>
  </rect>
  <text class="sp" x="746" y="183" fill="#00c6ff">88%</text>
  <text class="sl" x="15" y="213">SQL / NoSQL</text>
  <rect x="140" y="200" width="680" height="16" rx="4" fill="#161b22"/>
  <rect x="140" y="200" height="16" rx="4" fill="#00FF41" opacity=".85">
    <animate attributeName="width" from="0" to="557" dur="1.2s" begin="0.9s" fill="freeze" calcMode="spline" keySplines="0.4 0 0.2 1"/>
  </rect>
  <text class="sp" x="705" y="213" fill="#00FF41">82%</text>
  <text class="sl" x="15" y="243">Spring Boot</text>
  <rect x="140" y="230" width="680" height="16" rx="4" fill="#161b22"/>
  <rect x="140" y="230" height="16" rx="4" fill="#00c6ff" opacity=".85">
    <animate attributeName="width" from="0" to="476" dur="1.2s" begin="1.05s" fill="freeze" calcMode="spline" keySplines="0.4 0 0.2 1"/>
  </rect>
  <text class="sp" x="624" y="243" fill="#00c6ff">70%</text>
</svg>